<svg width="546" height="672" viewBox="0 0 546 672" fill="none" xmlns="http://www.w3.org/2000/svg">
<path opacity="0.1" fill-rule="evenodd" clip-rule="evenodd" d="M229.059 42.2047C213.165 52.073 182.384 71.3736 175.461 76.4259C175.112 76.6811 174.642 76.6917 174.285 76.4468L160.089 66.7098C159.692 66.4374 159.157 66.4868 158.816 66.8274L158.072 67.5714C157.699 67.9451 157.68 68.5451 158.03 68.941L167.863 80.0584C168.239 80.4836 168.187 81.1363 167.747 81.4954L164.638 84.0355C163.802 84.7181 164.491 86.0575 165.532 85.7751L169.199 84.7806C169.723 84.6385 170.265 84.9406 170.42 85.4612L174.585 99.4915C174.735 99.998 175.254 100.3 175.769 100.181L176.665 99.9743C177.136 99.8657 177.462 99.4365 177.439 98.9542L176.675 82.2392C176.656 81.8243 176.883 81.4464 177.264 81.2813C194.109 73.9846 227.53 59.362 236.748 54.7909C237.344 54.4955 238.047 54.8484 238.181 55.4996L248.447 105.241C248.579 105.881 249.28 106.224 249.866 105.937L254.542 103.647C254.889 103.476 255.107 103.121 255.102 102.735L254.877 86.6554C254.872 86.31 255.045 85.9869 255.336 85.8006C256.36 85.145 258.812 83.5795 260.069 82.811C261.684 81.8238 260.366 78.6229 258.704 78.7644C258.031 78.8218 257.11 78.9363 256.395 79.0309C255.808 79.1087 255.277 78.6674 255.252 78.0753L254.917 70.0347C254.901 69.6718 255.083 69.33 255.392 69.1387C256.441 68.4887 258.841 66.9826 259.639 66.3237C260.671 65.4712 259.963 61.8971 258.108 61.824C257.375 61.7952 256.27 61.9941 255.404 62.1844C254.746 62.3289 254.107 61.8242 254.127 61.1511L254.549 46.9033C254.561 46.5007 254.805 46.1483 255.179 46.0002C265.399 41.9582 285.316 31.6193 289.985 19.9187C290.214 19.3443 289.824 18.7265 289.208 18.6688C284.596 18.2368 272.081 18.3526 248.429 31.2759C248.118 31.446 247.732 31.4443 247.427 31.263L233.924 23.2276C233.341 22.881 233.265 22.0673 233.773 21.6186L235.065 20.4778C235.151 20.4022 235.224 20.3137 235.274 20.2112C235.854 19.0275 236.106 16.8397 233.075 16.2501C232.869 16.2101 232.657 16.2478 232.471 16.3441L228.507 18.3943C228.213 18.5462 227.863 18.543 227.572 18.3858L220.834 14.745C220.276 14.4436 220.136 13.7055 220.545 13.2207L222.031 11.4574C222.179 11.2818 222.266 11.0605 222.249 10.8314C222.156 9.58921 221.457 7.65641 219.195 7.4918C218.994 7.47716 218.795 7.54144 218.629 7.65523L214.848 10.2387C214.5 10.4764 214.04 10.4705 213.698 10.2238L199.796 0.18917C199.53 -0.00278683 199.187 -0.0521347 198.878 0.0571085L194.786 1.50259C194.107 1.74227 193.896 2.59855 194.386 3.12588L229.253 40.6811C229.681 41.1423 229.593 41.8728 229.059 42.2047ZM329 656.688C413.274 656.688 489.646 622.624 545.275 567.425C488.102 631.568 404.852 671.961 312.167 671.961C139.762 671.961 0 532.199 0 359.794C0 243.322 63.7865 141.749 158.332 88.101C75.466 143.708 20.8716 238.658 20.8716 346.446C20.8716 517.788 158.826 656.688 329 656.688Z" fill="#CB9A59"/>
</svg>
