<svg width="234" height="60" viewBox="0 0 234 60" fill="none" xmlns="http://www.w3.org/2000/svg">
<path fill-rule="evenodd" clip-rule="evenodd" d="M123.239 1.48104C115.471 2.95639 113.813 3.98818 117.282 5.18655C118.397 5.57137 119.67 6.51016 120.111 7.27141C120.7 8.29028 120.945 15.2325 121.037 33.5147L121.161 58.373L125.274 59.1498C132.123 60.4443 140.802 60.2074 145.115 58.6087C151.995 56.0589 156.857 50.0071 158.424 42.0434C161.334 27.2556 151.828 14.9994 139.236 17.3051C137.222 17.6738 134.988 18.2859 134.272 18.6656C132.998 19.3409 132.971 19.1498 132.971 9.64748C132.971 0.808899 132.869 -0.0543651 131.83 0.00245392C131.202 0.0373201 127.337 0.702357 123.239 1.48104ZM0 1.8C0 3.06293 1.19283 3.81385 3.19847 3.81385C3.82422 3.81385 4.98641 4.50019 5.78162 5.33892C8.08059 7.76277 8.6229 13.6326 8.34588 33.0944C8.0493 53.9456 7.81073 54.9639 2.94361 56.1777C0.747636 56.7259 -0.00782207 57.2095 0.140792 57.9733C0.320694 58.9005 2.03628 59.0187 15.3177 59.0187C29.0606 59.0187 30.3095 58.9257 30.5116 57.8888C30.6322 57.267 30.3428 56.7569 29.8682 56.755C29.3937 56.753 27.9063 56.4489 26.5629 56.0796C22.6683 55.0084 22.0028 53.0159 21.6397 41.3396L21.3301 31.4079L25.8198 31.8676C30.8994 32.3867 32.2187 33.2848 33.5452 37.1246C34.1396 38.846 34.8573 39.7151 35.8024 39.8571C37.1706 40.0631 37.1856 39.9423 37.0076 30.1805C36.8505 21.5588 36.6889 20.2681 35.7424 20.0886C35.0704 19.9608 34.4851 20.4489 34.2035 21.3716C32.486 27.0063 30.7267 28.3493 25.0644 28.3493H21.51V16.7273V5.10519H27.7231C37.0291 5.10519 39.9806 6.82977 43.471 14.306C44.4246 16.3476 45.373 18.0141 45.579 18.0089C47.3441 17.9618 47.6172 16.6291 47.4406 8.92821L47.2568 0.90833L23.6284 0.739168C0.765234 0.575168 0 0.609382 0 1.8ZM109.831 16.8319C107.435 17.6964 105.351 19.4888 102.899 22.7966L101.032 25.3147V21.021C101.032 18.016 100.787 16.7273 100.217 16.7285C98.4323 16.7305 85.0264 19.4565 83.9229 20.0415C82.3911 20.8537 82.923 21.6305 85.3393 22.1089C88.7 22.7746 88.9738 24.0769 88.9647 39.3257C88.9555 54.5209 88.7065 55.7141 85.3933 56.4347C84.0343 56.7304 83.4327 57.2463 83.4327 58.116C83.4327 59.3196 83.9268 59.3628 95.6458 59.1943C106.28 59.0413 107.885 58.8837 108.061 57.9759C108.21 57.2095 107.588 56.8266 105.71 56.529C101.497 55.862 101.382 55.4778 101.146 41.1678L100.934 28.3545L102.775 27.6494C104.566 26.9644 109.743 27.1619 112.499 28.0213C113.718 28.4016 114.074 27.8754 115.853 23.071C116.948 20.1144 117.654 17.493 117.422 17.2444C116.625 16.3902 111.784 16.1268 109.831 16.8319ZM52.9843 18.6526C46.1787 22.0566 42.4874 28.0756 41.8871 36.7469C41.2379 46.1285 45.3268 54.4971 52.3879 58.2387C54.6732 59.4493 56.1104 59.6644 61.9227 59.6644C68.2844 59.6644 69.0119 59.5301 72.2429 57.757C78.8778 54.1168 82.221 48.1669 82.6603 39.2166C83.1244 29.7653 80.0674 23.1097 73.3791 19.0142C70.5084 17.2561 69.6037 17.0553 63.6246 16.8512C57.3156 16.6362 56.8613 16.7131 52.9843 18.6526ZM174.348 18.2491C170.214 20.1564 165.33 25.4619 163.992 29.4986C161.623 36.6494 162.125 44.6454 165.285 50.0768C167.403 53.7164 172.165 57.7377 175.817 58.9703C180.411 60.5205 187.357 60.2945 191.309 58.4666C195.244 56.6465 198.804 53.7784 198.804 52.429C198.804 51.3778 198.445 51.4301 193.916 53.1366C184.599 56.6484 175.684 50.2337 175.17 39.6486L175.013 36.4202L187.615 36.2446L200.218 36.069L199.792 33.3391C198.597 25.6698 195.45 20.3165 190.835 18.1045C186.672 16.1081 178.841 16.1765 174.348 18.2491ZM211.841 17.7203C206.844 19.9375 203.367 24.8433 203.367 29.6775C203.367 35.2922 206.49 38.9913 213.749 41.9749C216.464 43.0913 219.481 44.5615 220.453 45.2427C222.742 46.8471 223.405 50.0865 221.995 52.7873C220.716 55.2376 219.161 56.1132 216.088 56.1132C211.733 56.1132 208.182 53.2884 205.712 47.8615C203.611 43.2424 202.715 44.2709 202.715 51.3036V57.4704L205.16 58.5499C207.013 59.3686 209.576 59.634 215.752 59.6469C222.87 59.6624 224.229 59.4887 226.507 58.2742C231.588 55.5656 234.004 51.6006 234 45.9761C233.996 39.7512 231.947 37.5359 221.944 32.9452C215.859 30.152 214.448 28.7722 214.448 25.6117C214.448 22.3814 215.243 20.9667 217.604 19.9982C219.008 19.4223 220.176 19.3971 222.07 19.9027C225.172 20.7298 226.973 22.5209 228.787 26.5815C230.971 31.4737 232.047 30.6666 232.047 24.1363C232.047 18.7411 232.012 18.6178 230.255 17.8953C227.239 16.6549 214.514 16.5342 211.841 17.7203ZM66.0454 22.054C68.8737 25.8047 69.4186 28.596 69.4186 39.3257C69.4186 48.7093 69.3169 49.5351 67.7891 52.562C64.9869 58.1128 60.3394 58.2587 57.5672 52.8822C53.7039 45.3899 54.2156 25.7589 58.3938 21.1856C59.1225 20.3876 60.3864 19.9556 61.9905 19.9556C64.0215 19.9556 64.7464 20.3307 66.0454 22.054ZM184.812 21.5117C185.378 22.3672 186.166 25.008 186.563 27.3808C187.452 32.7018 187.288 32.8458 180.316 32.8593L175.191 32.869L175.653 29.8021C176.19 26.2335 177.553 22.7481 179.05 21.1094C180.594 19.4197 183.565 19.627 184.812 21.5117ZM140.527 22.9599C144.38 25.4606 146.54 34.0874 145.381 42.3442C144.12 51.3287 140.531 56.7588 135.854 56.7588H133.623V39.7564C133.623 30.4045 133.818 22.5596 134.057 22.3233C134.885 21.5033 138.891 21.8971 140.527 22.9599Z" fill="#768E95"/>
</svg>
