<svg width="155" height="60" viewBox="0 0 155 60" fill="none" xmlns="http://www.w3.org/2000/svg">
<g clip-path="url(#clip0_814_801)">
<path d="M36.792 0C30.7389 0 24.9337 2.4201 20.6536 6.72792L6.68479 20.7868C2.40459 25.0946 0 30.9372 0 37.0294C0 49.7158 10.2184 60 22.8234 60C28.8765 60 34.6816 57.5798 38.9618 53.272L48.6241 43.5474C48.6243 43.5476 48.6241 43.5472 48.6241 43.5474L76.7767 15.2132C78.8209 13.1558 81.5934 12 84.4843 12C89.3243 12 93.4276 15.1748 94.8503 19.5681L103.735 10.6259C99.6819 4.23668 92.5747 0 84.4843 0C78.4312 0 72.626 2.4201 68.3459 6.72792L30.531 44.7868C28.4868 46.8442 25.7143 48 22.8234 48C16.8033 48 11.9231 43.0884 11.9231 37.0294C11.9231 34.1198 13.0715 31.3294 15.1157 29.272L29.0844 15.2132C31.1286 13.1558 33.9011 12 36.792 12C41.6322 12 45.7353 15.175 47.158 19.5684L56.043 10.6261C51.9898 4.2368 44.8826 0 36.792 0Z" fill="#768E95"/>
<path d="M78.2233 44.7868C76.1791 46.8442 73.4066 48 70.5156 48C65.6762 48 61.5733 44.826 60.1503 40.4334L51.2656 49.3754C55.3191 55.7638 62.4258 60 70.5156 60C76.5688 60 82.3739 57.5798 86.6541 53.272L124.469 15.2132C126.513 13.1558 129.286 12 132.177 12C138.197 12 143.077 16.9117 143.077 22.9706C143.077 25.8802 141.929 28.6706 139.884 30.728L125.916 44.7868C123.871 46.8442 121.099 48 118.208 48C113.368 48 109.265 44.8254 107.842 40.4324L98.9575 49.3746C103.011 55.7636 110.118 60 118.208 60C124.261 60 130.066 57.5798 134.346 53.272L148.315 39.2132C152.595 34.9054 155 29.0628 155 22.9706C155 10.2843 144.782 0 132.177 0C126.123 0 120.318 2.4201 116.038 6.72792L78.2233 44.7868Z" fill="#768E95"/>
</g>
<defs>
<clipPath id="clip0_814_801">
<rect width="155" height="60" fill="white"/>
</clipPath>
</defs>
</svg>
