<svg width="202" height="60" viewBox="0 0 202 60" fill="none" xmlns="http://www.w3.org/2000/svg">
<path fill-rule="evenodd" clip-rule="evenodd" d="M19.1909 0.178531C16.1041 0.572191 12.6512 1.86698 9.93383 3.64957C7.82871 5.03057 5.02309 7.83792 3.64294 9.94434C1.08546 13.8477 -0.237991 18.7007 0.0353159 23.1731C0.331887 28.0232 2.41305 32.2476 7.13338 37.5799C8.70084 39.3507 29.777 59.4393 30.4398 59.7942C30.9042 60.0428 31.3828 60.0387 31.9478 59.7811C32.8854 59.3536 32.8908 59.3017 32.8908 50.6345C32.8908 41.9431 32.9299 41.5139 33.8791 39.7687C34.132 39.3037 34.7853 38.5098 35.3305 38.0046C39.6707 33.984 46.4598 36.0251 47.9638 41.8029C48.1825 42.6433 48.2277 44.1974 48.2277 50.8978V58.9791L48.7314 59.4831C49.4386 60.1908 50.2425 60.1716 51.1045 59.4267C52.9704 57.8143 71.3113 40.3505 72.8 38.7686C77.5357 33.7367 79.7423 30.08 80.74 25.6111C81.156 23.7483 81.1102 20.0131 80.6442 17.7874C79.7204 13.375 77.7218 9.65259 74.5989 6.52814C71.4281 3.35557 67.6678 1.32571 63.2199 0.385448C61.176 -0.0464923 56.8043 -0.0413193 54.776 0.395449C49.4355 1.54591 44.5043 4.6407 41.3492 8.82216C40.9394 9.36532 40.5551 9.80588 40.4955 9.8014C40.4357 9.79691 40.089 9.37704 39.725 8.86854C39.3609 8.36004 38.4221 7.30873 37.6385 6.5321C32.6848 1.6223 25.9793 -0.687246 19.1909 0.178531ZM90.2334 0.916191C89.2394 1.27123 88.7461 1.65851 88.2091 2.50583C87.2393 4.03616 87.3742 5.75754 88.5705 7.1175C89.4416 8.10778 90.4271 8.49816 91.8043 8.39832C95.0675 8.16226 96.4764 4.146 94.1078 1.83266C93.0309 0.781005 91.5758 0.436832 90.2334 0.916191ZM98.5465 16.0172V29.4668H102.252H105.956V24.3801V19.2934H110.695H115.434V24.3801V29.4668H119.139H122.844V16.0172V2.56756H119.139H115.434V7.56807V12.5686H110.695H105.956V7.56807V2.56756H102.252H98.5465V16.0172ZM188.462 6.05929L188.414 8.68887L187.251 8.73991L186.088 8.79078V11.7143V14.6377H187.294H188.5L188.502 19.5951C188.504 24.9515 188.597 25.7018 189.433 27.1287C190.453 28.8712 192.079 29.6468 194.962 29.7669C197.027 29.8527 198.626 29.5861 199.877 28.9476L200.563 28.5976V25.7377C200.563 23.0796 200.541 22.8867 200.261 23.0065C198.579 23.7256 196.991 23.7293 196.277 23.016L195.824 22.5623L195.769 18.6L195.714 14.6377H198.139H200.563V11.7112V8.78474L198.193 8.7368L195.824 8.68887L195.776 6.05929L195.729 3.42972H192.119H188.509L188.462 6.05929ZM17.8201 7.30166C18.09 7.57152 18.2432 7.92121 18.2432 8.26728C18.2432 8.84406 17.8677 9.28462 16.2918 10.5565C15.2669 11.3835 13.8139 13.315 13.0214 14.9038C10.1434 20.674 11.2766 26.7638 16.3788 32.9446C16.8744 33.545 18.0782 34.8224 19.0539 35.7831C20.5701 37.2762 20.828 37.6102 20.828 38.0811C20.828 38.7628 20.0197 39.6403 19.392 39.6403C18.8175 39.6403 17.6281 38.671 15.7043 36.6353C11.9947 32.7101 9.71497 28.7559 8.8375 24.725C8.38411 22.6415 8.41944 19.4468 8.91728 17.5175C9.73583 14.3455 11.1758 11.6468 13.2313 9.43257C15.476 7.01456 16.8811 6.36191 17.8201 7.30166ZM65.7485 7.50237C68.9342 9.89227 71.3818 13.8577 72.2811 18.0864C72.5999 19.5851 72.588 22.7186 72.2572 24.4644C71.4407 28.7711 68.8262 33.1879 64.5863 37.423C62.409 39.598 61.9203 39.8682 61.0131 39.3989C60.4431 39.104 60.2904 38.8191 60.2904 38.0508C60.2904 37.6073 60.6642 37.1398 62.6599 35.0877C66.0416 31.6105 67.8739 28.7942 69.0097 25.3285C69.446 23.997 69.4908 23.6261 69.4996 21.2763C69.5089 18.782 69.4889 18.6316 68.9392 17.0518C67.957 14.2291 66.2448 11.6555 64.4078 10.2407C63.0018 9.15788 62.8753 9.00063 62.8753 8.33625C62.8753 7.51358 63.5043 6.87834 64.319 6.87834C64.7378 6.87834 65.1658 7.06526 65.7485 7.50237ZM133.27 8.43402C129.59 9.17306 126.718 11.8104 125.482 15.5861C125.1 16.7557 125.03 17.2803 125.024 19.0347C125.016 21.442 125.3 22.7142 126.254 24.5343C127.506 26.9238 130.038 28.815 133.012 29.5813C134.372 29.9317 137.319 29.9714 138.784 29.6589C140.539 29.2846 142.537 28.2082 143.91 26.8983L145.133 25.7313L143.132 24.0642C142.031 23.1474 141.078 22.3971 141.014 22.3971C140.95 22.3971 140.62 22.6415 140.28 22.9401C139.23 23.8625 137.921 24.3625 136.544 24.3677C135.105 24.373 134.226 24.0975 133.417 23.3867C132.856 22.8932 132.15 21.7698 132.15 21.3695C132.15 21.2484 134.355 21.1901 138.942 21.1901H145.733L145.84 20.5435C145.978 19.7096 145.67 16.7762 145.313 15.524C144.288 11.9309 141.508 9.24306 138.058 8.51178C136.807 8.24641 134.399 8.20727 133.27 8.43402ZM153.518 8.52592C151.76 8.90372 149.766 9.98193 148.422 11.2815C147.732 11.948 147.321 12.4692 147.415 12.5587C147.502 12.6419 148.415 13.4087 149.444 14.2629L151.316 15.816L152.331 15.0683C153.679 14.0754 154.782 13.7204 156.259 13.8039C158.236 13.9158 159.865 15.1064 160.171 16.6638L160.282 17.2242H156.979C153.238 17.2242 151.673 17.4587 149.952 18.2772C147.674 19.3601 146.608 21.0879 146.608 23.6954C146.608 27.6982 149.273 29.865 154.207 29.8748C156.603 29.8794 158.4 29.3011 159.794 28.0767L160.393 27.5508L160.445 28.4657L160.497 29.3806L164 29.4273L167.503 29.4741L167.434 23.2198C167.377 17.995 167.317 16.7988 167.073 15.9524C166.229 13.0309 164.367 10.7515 161.79 9.4874C159.407 8.31849 156.212 7.94707 153.518 8.52592ZM182.508 8.43333C180.592 8.71284 178.877 9.99331 177.892 11.8788L177.487 12.6548L177.479 10.7149L177.471 8.77509H173.852H170.234V19.121V29.4668H173.852H177.471L177.473 25.8027C177.474 21.775 177.635 20.3352 178.227 19.0337C179.014 17.3042 180.299 16.4484 182.574 16.1381L184.02 15.9408V12.2039C184.02 8.95545 183.984 8.4535 183.747 8.36246C183.597 8.30486 183.461 8.26745 183.445 8.27935C183.43 8.29107 183.008 8.36039 182.508 8.43333ZM90.247 10.3489C89.3959 10.5884 88.231 11.6174 87.8427 12.4727C87.5489 13.1202 87.525 13.7775 87.5215 21.3195L87.5177 29.4668H91.4812H95.4447L95.4436 21.5781C95.4431 16.8254 95.3739 13.4414 95.2696 13.0655C94.7004 11.015 92.3664 9.7526 90.247 10.3489ZM29.1158 11.1176C29.9754 11.8961 29.6316 12.9872 28.2595 13.8346C24.9404 15.8846 23.2042 19.8622 23.9979 23.5981C24.6493 26.6636 26.4279 29.1959 29.3124 31.1646C30.5825 32.0312 30.8408 32.9132 30.0552 33.6991C29.3765 34.3783 28.6595 34.2699 27.1508 33.2601C24.146 31.2492 21.8349 27.8068 21.1001 24.2472C20.0533 19.1758 22.3393 13.8968 26.7024 11.3102C27.8782 10.613 28.5037 10.5632 29.1158 11.1176ZM54.4314 11.3128C55.6874 12.0333 58.0514 14.5489 58.774 15.9337C60.9802 20.1619 60.6525 24.9384 57.8629 29.2144C56.2556 31.6779 53.3414 34.1225 52.0118 34.1225C51.217 34.1225 50.6402 33.5102 50.6402 32.6665C50.6402 31.9893 50.8587 31.7046 51.8465 31.0944C53.9573 29.7906 56.0063 27.1502 56.7714 24.7476C57.5673 22.2487 57.3723 19.79 56.1984 17.526C55.4019 15.9898 54.4812 14.9705 52.964 13.9463C52.279 13.4837 51.6697 12.9781 51.6102 12.8229C51.1874 11.7204 52.1165 10.5434 53.2251 10.777C53.462 10.827 54.0049 11.0681 54.4314 11.3128ZM137.106 14.0727C138.054 14.5136 138.687 15.4142 138.927 16.6638L139.034 17.2242H135.506H131.978L131.981 16.8362C131.992 15.7615 133.33 14.0741 134.35 13.8492C134.609 13.7921 134.898 13.7178 134.993 13.684C135.296 13.5763 136.525 13.8023 137.106 14.0727ZM43.2303 16.9075C47.3759 18.8359 48.3814 24.3289 45.1758 27.5365C44.7178 27.9949 43.8792 28.5974 43.3126 28.8752C42.3822 29.3316 42.1155 29.3806 40.5592 29.3806C39.0533 29.3806 38.7126 29.3227 37.858 28.9219C32.351 26.3387 32.841 18.4904 38.6268 16.6023C39.796 16.2208 42.0793 16.3722 43.2303 16.9075ZM160.407 21.6643C160.4 22.9729 159.431 24.3456 158.133 24.8883C157.32 25.2283 155.55 25.2352 154.903 24.9008C154.139 24.5053 153.69 23.8218 153.69 23.0522C153.69 21.4248 154.502 21.0832 158.472 21.0392L160.411 21.0177L160.407 21.6643ZM122.199 34.6565C121.892 34.7474 121.505 35.0275 121.34 35.2791C120.888 35.9694 110.944 57.761 110.836 58.299C110.762 58.6627 110.857 58.8825 111.265 59.2905C112.416 60.4422 113.073 59.8207 114.765 55.9778L116.037 53.0894L122.821 53.1326L129.605 53.1761L130.373 54.9004C132.063 58.6934 132.459 59.4131 132.973 59.6264C133.828 59.9806 134.919 59.2595 134.9 58.3537C134.896 58.1614 132.545 52.8878 129.676 46.6344C125.975 38.5669 124.338 35.1762 124.04 34.96C123.481 34.5549 122.879 34.4558 122.199 34.6565ZM186.346 34.791C182.252 35.8037 179.044 38.7276 177.624 42.7411C175.842 47.7816 177.176 53.3532 181.006 56.8548C184.573 60.1171 190.326 60.9279 194.79 58.7975C195.548 58.4356 196.595 57.8198 197.116 57.4293C199.126 55.9233 200.914 53.1952 201.623 50.5529C202.126 48.6798 202.126 45.6022 201.623 43.7291C200.421 39.2483 196.878 35.778 192.435 34.7298C190.949 34.3792 187.887 34.4101 186.346 34.791ZM168.417 35.0631L167.993 35.4862V47.1191C167.993 53.5172 168.042 58.8775 168.1 59.031C168.262 59.4514 169.131 59.8385 169.632 59.7128C169.871 59.6526 170.221 59.4078 170.409 59.1686C170.742 58.7444 170.75 58.4461 170.745 47.1608C170.739 34.9351 170.761 35.2764 169.943 34.8403C169.361 34.5301 168.879 34.6004 168.417 35.0631ZM87.5145 35.3062L86.9937 35.8275L87.0402 47.3852L87.0869 58.9431L87.4709 59.3272C88.0364 59.8932 88.9935 59.8506 89.5219 59.236C89.9284 58.7631 89.9303 58.7408 89.9303 54.3735V49.9861H93.4337H96.9368L100.483 54.6071C102.433 57.1487 104.159 59.3369 104.319 59.4697C104.824 59.889 105.776 59.773 106.237 59.236C106.721 58.6737 106.756 58.1535 106.35 57.5684C106.018 57.0889 100.701 50.2262 100.327 49.794C100.111 49.5444 100.215 49.4744 101.331 49.1154C105.196 47.8718 107.225 44.6002 106.481 40.8137C105.952 38.1251 104.268 36.3437 101.321 35.3538C100.036 34.9224 99.8995 34.9131 94.0234 34.8496L88.0354 34.7849L87.5145 35.3062ZM140.647 35.2283L140.163 35.6443L140.112 46.738C140.085 52.8395 140.108 58.0876 140.165 58.4004C140.235 58.7887 140.442 59.0793 140.819 59.3167C141.345 59.6488 141.583 59.6609 146.194 59.5885C151.675 59.5023 152.65 59.3403 155.155 58.0994C157.587 56.8949 159.354 55.1377 160.577 52.7083C161.556 50.7641 161.848 49.2328 161.748 46.5685C161.618 43.0904 160.718 40.9913 158.339 38.6102C156.827 37.0976 155.626 36.3429 153.644 35.6592C151.583 34.9482 150.335 34.8194 145.472 34.8156L141.13 34.8122L140.647 35.2283ZM191.584 37.3188C195.056 38.1379 197.834 40.9402 198.751 44.5476C199.086 45.8671 199.086 48.5874 198.751 49.9068C197.606 54.4147 193.981 57.2927 189.448 57.2927C185.312 57.2927 181.801 54.7747 180.394 50.8005C179.862 49.2973 179.731 46.0454 180.138 44.4683C181.126 40.6454 184.13 37.7887 187.811 37.1728C188.797 37.0078 190.553 37.0757 191.584 37.3188ZM100.019 37.807C101.195 38.1203 101.608 38.3513 102.464 39.1762C103.422 40.0993 103.788 41.1796 103.676 42.7542C103.535 44.7156 102.441 46.1263 100.442 46.9217C99.5643 47.271 99.1414 47.3036 94.7123 47.3635L89.9303 47.4281V42.4995V37.5711L94.54 37.5732C97.8474 37.5745 99.3954 37.6406 100.019 37.807ZM151.605 37.8361C154.039 38.4103 156.44 40.1726 157.622 42.2521C159.233 45.086 159.234 49.3628 157.624 52.2024C156.826 53.6086 155.322 55.0158 153.83 55.7502C151.928 56.687 150.71 56.877 146.582 56.8804L143.006 56.8834V47.2272V37.5711L146.754 37.5737C149.485 37.5756 150.802 37.6468 151.605 37.8361ZM125.682 44.3592C127.164 47.6657 128.345 50.402 128.308 50.4398C128.27 50.4774 125.756 50.4877 122.721 50.4627L117.203 50.4172L119.97 44.2512C121.493 40.8599 122.794 38.1441 122.863 38.2161C122.932 38.2881 124.2 41.0525 125.682 44.3592Z" fill="#768E95"/>
</svg>
