<svg xmlns="http://www.w3.org/2000/svg" fill="none" viewBox="0 0 256 256">
  <g clip-path="url(#a)">
    <path fill="url(#b)"
      d="M255.153 37.79 134.897 251.992c-2.483 4.422-8.862 4.448-11.382.047L.875 37.81c-2.746-4.795 1.37-10.604 6.827-9.632L128.087 49.61a6.563 6.563 0 0 0 2.322-.004l117.867-21.4c5.438-.986 9.574 4.778 6.877 9.583Z" />
    <path fill="url(#c)"
      d="M185.432.063 96.44 17.433a3.27 3.27 0 0 0-1.832 1.052 3.249 3.249 0 0 0-.802 1.95l-5.474 92.096a3.245 3.245 0 0 0 1.153 2.68 3.28 3.28 0 0 0 2.844.685l24.777-5.695c2.318-.533 4.413 1.501 3.936 3.823l-7.361 35.906c-.495 2.417 1.782 4.483 4.151 3.766l15.304-4.631c2.372-.718 4.652 1.354 4.15 3.773l-11.698 56.401c-.732 3.528 3.979 5.451 5.943 2.427l1.313-2.02L205.36 65.489c1.215-2.413-.88-5.166-3.54-4.654l-25.505 4.903c-2.396.46-4.435-1.763-3.759-4.098l16.646-57.48c.677-2.341-1.37-4.565-3.769-4.097h-.001Z" />
  </g>
  <defs>
    <linearGradient id="b" x1="-2.12" x2="126.92" y1="45.46" y2="221.392" gradientUnits="userSpaceOnUse">
      <stop stop-color="#41d1ff" />
      <stop offset="1" stop-color="#bd34fe" />
    </linearGradient>
    <linearGradient id="c" x1="139.244" x2="165.722" y1="4.779" y2="187.121" gradientUnits="userSpaceOnUse">
      <stop stop-color="#ffea83" />
      <stop offset=".083" stop-color="#ffdd35" />
      <stop offset="1" stop-color="#ffa800" />
    </linearGradient>
    <clipPath id="a">
      <path fill="#fff" d="M0 0h256v256H0z" />
    </clipPath>
  </defs>
</svg>
